<?xml version="1.0" encoding="UTF-8"?>
<svg xmlns="http://www.w3.org/2000/svg" viewBox="0 0 8192.1 1051.9">
  <defs>
    <style>
      .cls-1 {
        fill: #efd200;
      }

      .cls-2 {
        fill: #bc1766;
      }

      .cls-3 {
        fill: #1978d8;
      }

      .cls-4 {
        fill: #f24d49;
      }

      .cls-5 {
        fill: #736ced;
      }

      .cls-6 {
        fill: #f7a600;
      }

      .cls-7 {
        fill: #95c11f;
      }

      .cls-8 {
        fill: #009688;
      }
    </style>
  </defs>
  <g id="Object_2">
    <g>
      <polygon class="cls-2" points="2429.2 76.1 2267.8 619.4 2018.2 619.4 2211 .6 2406.8 .6 2429.2 76.1"/>
      <path class="cls-2" d="M1776,172.6c-32-53.6-77.3-95.7-136-126.2C1581.1,15.8,1512.9.5,1435.2.5h-463.4v674.3h638.7l-.3-.6c10.2-4.2,20.2-8.7,29.9-13.6,21.3-11.2,40.9-23.8,58.8-38v-3.4h4.3c29.3-24,53.6-52.3,73-84.8,31.9-53.6,47.8-113.9,47.8-181s-16-127.4-47.8-180.9h0l-.2.1ZM1544.9,413.6c-10.5,19.1-25.2,33.9-44,44.4-19,10.5-40.9,15.7-65.8,15.7h-209.3v-247.8h209.3c24.8,0,46.8,5.3,65.8,15.8,18.9,10.5,33.6,25.3,44,44.2,10.5,19.1,15.8,40.5,15.8,64.6s-5.3,44.1-15.8,63.1Z"/>
      <path class="cls-2" d="M815,674.9h-249.9c-8.6-12.9-20.7-23.1-35.9-30.7-16.9-8.5-36.9-12.8-59.8-12.8h-223.7v-210.3h199.7c22.9,0,43.1-4.5,60.5-13.5,17.5-9,30.7-21,39.7-36s13.5-32.5,13.5-52.6-4.5-37.5-13.5-52.6-22-26.8-38.9-35.2c-16.9-8.5-37.4-12.8-61.3-12.8h-199.7v205.3H0V.6h470.9c63.8,0,120.1,12.2,168.9,36.9,48.9,24.5,86.5,57.8,112.9,99.8,26.3,42.1,39.6,88.6,39.6,139.7s-13.5,96.1-40.4,135.2c-26.9,39-65.5,69.1-115.9,90.1-20.6,8.7-43.1,15.5-67,20.6,41.5,5,78.9,14.6,111.9,29,50.4,22.1,89,52.6,115.9,91.6,6.9,10.1,13,20.6,18.2,31.5h0v-.1Z"/>
    </g>
  </g>
  <g id="Object_3">
    <g>
      <path class="cls-7" d="M837.2,780.1c0,51.1-13.2,97.4-39.7,139-26.3,41.5-63.9,74.1-112.8,97.6-48.9,23.5-105.1,35.2-168.9,35.2H0V421.1h246.7v413h222.7c22.9,0,42.9-4.5,59.8-13.5s29.9-21,38.9-36,13.5-32.5,13.5-52.6-4.5-37.5-13.5-52.6c-.9-1.5-1.8-3-3.6-5.5h249.9c15.5,32.5,22.8,67.5,22.8,106.1h0v.1Z"/>
      <polygon class="cls-7" points="1853.7 1051.9 1551.7 1051.9 1328.7 706.5 1225.8 706.5 1225.8 1051.9 971.7 1051.9 971.7 671.6 1610.4 671.6 1720 844.7 1853.7 1051.9"/>
      <polygon class="cls-7" points="2200.7 844.7 2139.2 1051.9 1883.6 1051.9 1948.1 844.7 2200.7 844.7"/>
    </g>
  </g>
  <g id="Object_4">
    <g>
      <polygon class="cls-5" points="2989.8 1051.9 2719.2 1051.9 2657.6 847 1948.1 847 2018.2 617 2589.2 617 2427.7 76.1 2405.3 .6 2662.4 .6 2989.8 1051.9"/>
      <polygon class="cls-5" points="3670.4 529.2 3416.3 529.2 3318.7 76.8 3318.7 1051.9 3064.6 1051.9 3064.6 .6 3556.4 .6 3670.4 529.2"/>
    </g>
  </g>
  <g id="Object_5">
    <g>
      <polygon class="cls-1" points="4021.3 .6 4021.3 1051.9 3529.5 1051.9 3415.9 526.3 3670 526.3 3767.2 975.9 3767.2 .6 4021.3 .6"/>
      <rect class="cls-1" x="4170.8" y="222.2" width="254" height="829.7"/>
    </g>
  </g>
  <g id="Object_6">
    <g>
      <path class="cls-8" d="M5046.7,834.1c1.4-1.7,2.6-3.5,3.8-5.2-1.2,1.7-2.3,3.5-3.6,5.2h-.2,0Z"/>
      <path class="cls-8" d="M5142.4,526.3c0,98.2-23.1,187.3-69.5,267.3-6.6,11.4-13.5,22.4-22.5,35.3h-468.8c60.6-2.3,112.3-15,157.2-40.5s79.6-61.1,103.9-106.6c24.4-45.6,36.6-97.4,36.6-155.5s-12.2-109.9-36.6-155.4c-24.4-45.6-59.1-81.1-103.9-106.6s-94.8-36.5-153.7-36.5l-414.3-.7V0l434.9.7c101.7,0,193.4,23.1,275.1,69.1,81.8,46.1,145.8,109.2,192.2,189.2,46.3,80.2,69.5,169.2,69.5,267.3h-.1Z"/>
      <polygon class="cls-8" points="5619.9 .6 5619.9 218.4 5508.6 218.4 5508.6 836.3 5262 836.3 5262 .6 5619.9 .6"/>
    </g>
  </g>
  <g id="Object_7">
    <g>
      <path class="cls-6" d="M5052.1,824c-.5,3.4-1,4.2-1.6,4.9-1.2,1.7-2.4,3.5-3.8,5.2-42.8,58.3-101.3,112.3-165.9,148.7-81.6,46.1-173.4,69.1-275.1,69.1h-185.3v-227.9h631.7,0Z"/>
      <path class="cls-6" d="M5052.2,826.6c-.6.8-1.2,1.5-1.7,2.3.6-.7,1.2-1.5,1.6-2.3h.1Z"/>
      <path class="cls-6" d="M6099.1,780.1c0,51.1-13.2,97.4-39.6,139-26.4,41.5-64,74.1-112.9,97.6-48.8,23.5-105.1,35.2-168.9,35.2h-515.7v-217.8h469.4c23,0,42.9-4.5,59.8-13.5,17-9,29.9-21,38.9-36s13.5-32.5,13.5-52.6-4.5-37.5-13.5-52.6-21.8-26.8-38.9-35.2c-16.9-8.5-36.8-12.8-59.8-12.8h-225.2v-210.3h201.2c23,0,43.1-4.5,60.6-13.5s30.6-21,39.6-36,13.5-32.5,13.5-52.6-4.5-37.5-13.5-52.6-21.8-26.8-38.9-35.2c-16.9-8.5-37.4-12.8-61.3-12.8h-91.7V.7h117.1c63.8,0,120.2,12.2,168.9,36.9,48.9,24.5,86.5,57.8,112.9,99.8,26.3,42.1,39.6,88.6,39.6,139.7s-13.5,96.1-40.4,135.2-65.4,69.1-115.8,90.1c-20.7,8.7-43.1,15.5-67.2,20.6,41.5,5,78.9,14.6,112,29,50.3,22.1,88.9,52.6,115.8,91.6s40.4,84.7,40.4,136.7h0l.1-.2Z"/>
      <polygon class="cls-6" points="6513.8 617 6446.3 844.7 6384.8 1051.9 6129.1 1051.9 6264.4 617 6513.8 617"/>
    </g>
  </g>
  <g id="Object_8">
    <g>
      <polygon class="cls-3" points="7101.3 622.4 6836.8 622.4 6674.8 76.1 6513 619.4 6263.6 619.4 6456.4 .6 6908 .6 7101.3 622.4"/>
      <path class="cls-3" d="M8139.9,225.8h0c0,.1-575.8.1-575.8.1v480.6h-254.1V.6h463.4c77.7,0,146,15.2,204.8,45.9,58.9,30.5,104.2,72.6,136,126.2,10.1,17,18.7,34.8,25.6,53.1h.1Z"/>
    </g>
  </g>
  <g id="Object_9">
    <g>
      <polygon class="cls-4" points="7235.4 1051.9 6964.8 1051.9 6903.2 844.7 6443.6 844.7 6510.5 619.4 7100.7 619.4 7235.4 1051.9"/>
      <path class="cls-4" d="M8192,1051.9h-302l-222.9-345.4h-103v345.4h-254.1v-350.6l251.7,2.6v-230.2h211.7c25,0,46.9-5.2,65.8-15.7,19-10.5,33.7-25.3,44.2-44.4,10.5-18.9,15.6-40,15.6-63.1s-5.2-45.5-15.6-64.6c-10.5-18.9-25.2-33.7-44.2-44.2-18.9-10.5-40.8-15.8-65.8-19.5h366.5c14.8,43.1,22.2,85.7,22.2,131.4,0,67.1-15.9,127.4-47.8,181-31.9,53.5-77.2,95.5-136,126.2-9.7,5-19.7,9.5-29.9,13.6l243.7,377.5h-.1Z"/>
    </g>
  </g>
</svg>